# xmcd
#
# Track frame offsets:
#	150
#	17048
#	33112
#	51421
#	68574
#	87407
#	102499
#	117066
#	134277
#	155611
#	171807
#	189326
#	205007
#	218649
#	236033
#	253596
#	273482
#	290417
#	303375
#	317547
#
# Disc length: 4532 seconds
#
# Revision: 1
# Processed by: cddbd v1.4PL0 Copyright (c) Steve Scherf et al.
# Submitted via: CDmax 1.8
#
DISCID=1711b214
DTITLE=Son Volt - 11.29.1995 Liberty Lunch, Austin, Texas
DYEAR=1995
DGENRE=Country
TTITLE0=Route
TTITLE1=Loose String
TTITLE2=Catchin' On
TTITLE3=Live Free Or Die
TTITLE4=Anodyne
TTITLE5=Windfall
TTITLE6=Slate
TTITLE7=Out Of The Picture
TTITLE8=Tear Stained Eye
TTITLE9=Grindstone
TTITLE10=Ten Second News
TTITLE11=Fifteen Keys
TTITLE12=Drown
TTITLE13=Postcard
TTITLE14=Chickamauga
TTITLE15=Too Early
TTITLE16=Going, Going, Gone
TTITLE17=Lookin' At The World Through A Windshield
TTITLE18=Still Be Around
TTITLE19=Rex's Blues (w/ Kelly Willis)
EXTD=Audience Recording\nUnknown Mic\nSony D8 Dat\nDat > Wav (SoundForge]\nBur
EXTD=ned with CD Architect
EXTT0=
EXTT1=
EXTT2=
EXTT3=
EXTT4=
EXTT5=
EXTT6=
EXTT7=
EXTT8=
EXTT9=
EXTT10=
EXTT11=
EXTT12=
EXTT13=
EXTT14=
EXTT15=
EXTT16=
EXTT17=
EXTT18=
EXTT19=
PLAYORDER=
